<!--?xml version="1.0" encoding="utf-8"?-->
<!-- Generator: Adobe Illustrator 19.1.1, SVG Export Plug-In . SVG Version: 6.00 Build 0)  -->
<svg version="1.1" id="_x31_0" xmlns="http://www.w3.org/2000/svg" xmlns:xlink="http://www.w3.org/1999/xlink" x="0px" y="0px" viewBox="0 0 512 512" style="width: 256px; height: 256px; opacity: 1;" xml:space="preserve">
<style type="text/css">
	.st0{fill:#374149;}
</style>
<g>
	<path class="st0" d="M134.25,155.394c31.531,9.558,76.789,14.5,121.778,14.5c44.66,0,89.59-4.832,121.121-14.336
		c3.789-1.152,7.414-2.363,10.766-3.679c6.703-2.473,12.523-5.274,17.25-8.297c0.218-0.106,0.437-0.219,0.602-0.383
		c9.007-5.824,14.117-12.633,14.117-20.32V81.348c0-11.809-12.086-21.477-31.637-28.891c-0.222-3.242-0.496-6.426-0.66-9.226
		c-0.278-3.297-0.442-6.043-0.606-7.695c0-0.328-0.054-0.602-0.164-0.934C383.688,15.215,325.789,0,256.028,0
		c-69.758,0-127.602,15.215-130.786,34.55c-0.109,0.325-0.168,0.657-0.168,0.985c-0.164,1.652-0.328,4.398-0.602,7.695
		c-0.168,2.746-0.441,5.93-0.66,9.172c-19.554,7.414-31.695,17.082-31.695,28.946v41.531c0,7.519,4.946,14.222,13.57,19.938
		c0.164,0.164,0.274,0.218,0.438,0.328c4.726,3.078,10.546,5.934,17.246,8.515C126.777,152.977,130.402,154.187,134.25,155.394z
		 M244.055,41.523c-2.527,0.387-5.054,0.825-7.637,1.266c-26.09,4.723-48.558,11.094-67.012,17.962c-0.054,0-0.054,0-0.054,0
		c-4.23,1.648-8.297,3.242-12.086,4.886c-0.77,0.332-1.539-0.274-1.539-1.098v-0.11l1.098-18.512c0-0.328,0.11-0.546,0.332-0.769
		c0.934-0.879,2.195-1.758,3.789-2.746c0,0,0,0,0.055,0c10.214-6.152,33.339-13.786,66.847-15.543
		c1.817-0.054,3.68-0.164,5.551-0.222c2.801-0.051,5.656-0.106,8.566-0.106h0.934c4.945,0.054,7.527,4.008,7.418,7.852
		C250.207,37.68,248.227,40.867,244.055,41.523z" style="fill: rgb(255, 255, 255);"></path>
	<path class="st0" d="M132.219,463.606c0.711,35.594,75.855,47.129,121.062,48.285c2.855,0.11,5.879,0.11,9.008,0.11
		c24.328,0,54.789-2.535,78.351-9.875c0.508-0.156,1.008-0.32,1.512-0.48c1.687-0.551,3.348-1.11,4.953-1.711
		c1.633-0.606,3.223-1.242,4.77-1.906c0.606-0.262,1.215-0.515,1.805-0.785c1.985-0.906,3.871-1.879,5.676-2.902
		c0.398-0.226,0.789-0.457,1.176-0.691c1.793-1.07,3.5-2.192,5.058-3.391c0.328-0.25,0.617-0.515,0.93-0.77
		c1.25-1.015,2.41-2.078,3.477-3.187c0.476-0.488,0.934-0.988,1.371-1.496c0.839-0.988,1.594-2.02,2.281-3.086
		c0.469-0.718,0.914-1.449,1.309-2.202c0.378-0.742,0.676-1.516,0.98-2.294c0.547-1.367,0.969-2.785,1.258-4.254
		c0.066-0.363,0.109-0.734,0.164-1.102c0.148-0.996,0.426-1.946,0.449-2.988l26.309-306.126l-0.602,0.274
		c-5.328,2.527-11.098,4.782-17.141,6.758c-3.461,1.157-7.031,2.196-10.71,3.242l-21.258,247.184h-0.054
		c-19.774,12.523-61.246,18.675-100.684,18.015c-38.234-0.602-78.332-7.797-97.722-20.762l-20.27-244.606
		c-3.679-1.042-7.305-2.141-10.82-3.293c-4.817-1.621-9.387-3.465-13.77-5.434c-1.211-0.578-2.477-1.094-3.649-1.722l0.008,0.098
		c-0.05-0.027-0.106-0.039-0.168-0.082L132.219,463.606z M352.696,439.68l-2.297,26.836l-0.055,0.769
		c-5.328,6.317-35.266,17.25-88.054,17.25c-2.855,0-5.656,0-8.293-0.058c-50.535-1.371-88.438-13.676-94.371-22.192v-0.054
		l-0.055-0.879l-1.976-23.835c32.683,15.101,82.121,16.968,95.797,17.191c0.878,0,2.254,0.054,3.957,0.054
		c14.16,0,54.687-1.023,85.84-11.546C346.465,442.133,349.668,440.977,352.696,439.68z" style="fill: rgb(255, 255, 255);"></path>
	<path class="st0" d="M170.117,289.805l0.715-0.274c0.66-0.164,1.262-0.164,1.812,0.114c0.606,0.328,0.989,0.77,1.207,1.371
		l3.078,8.953c0.328,0.879,0.824,1.043,1.538,0.492l7.962-4.172c0.718-0.496,0.938-1.21,0.605-2.09l-2.523-7.359
		c-0.172-0.508-0.543-0.848-0.766-1.305c-0.27-0.57-0.59-1.114-0.949-1.629c-0.286-0.402-0.422-0.926-0.758-1.297
		c-0.449-0.469-1-0.719-1.476-1.114c-0.301-0.246-0.614-0.48-0.922-0.691c-0.473-0.324-0.867-0.789-1.394-1.051
		c-1.426-0.66-2.91-1.098-4.558-1.206c-1.649-0.11-3.238,0.109-4.832,0.66l-3.516,1.207c-0.504,0.168-0.839,0.538-1.297,0.758
		c-0.574,0.274-1.125,0.594-1.641,0.961c-0.402,0.282-0.926,0.418-1.293,0.754c-1.207,1.098-2.141,2.36-2.855,3.79
		c-0.66,1.374-1.098,2.91-1.207,4.558c-0.113,1.594,0.11,3.242,0.656,4.836l14.723,42.68c0.168,0.507,0.539,0.843,0.762,1.3
		c0.27,0.57,0.59,1.118,0.953,1.633c0.286,0.406,0.422,0.926,0.758,1.298c1.098,1.206,2.359,2.14,3.789,2.855
		c1.43,0.66,2.91,1.098,4.558,1.207c1.649,0.109,3.242-0.11,4.832-0.66l3.516-1.207c1.594-0.551,3.023-1.371,4.23-2.473
		c1.21-1.098,2.144-2.359,2.855-3.789c0.66-1.375,1.047-2.91,1.211-4.559c0.11-1.59-0.11-3.242-0.66-4.836l-3.954-11.535
		c-0.332-0.874-0.938-1.316-1.816-1.262l-8.786,1.813c-0.878,0-1.152,0.442-0.878,1.32l4.449,12.962
		c0.078,0.214,0.09,0.43,0.106,0.64c0.012,0.176,0,0.34-0.031,0.504c-0.039,0.207-0.066,0.418-0.187,0.614
		c-0.274,0.606-0.711,0.988-1.317,1.21l-0.77,0.274c-0.602,0.164-1.207,0.164-1.758-0.113c-0.602-0.274-0.989-0.766-1.207-1.371
		l-14.394-41.801c-0.219-0.602-0.219-1.207,0.058-1.758C169.074,290.414,169.516,290.027,170.117,289.805z" style="fill: rgb(255, 255, 255);"></path>
	<path class="st0" d="M206.032,328.734c0.273,0.57,0.594,1.117,0.957,1.633c0.285,0.406,0.422,0.926,0.758,1.297
		c1.098,1.207,2.359,2.145,3.734,2.855c1.426,0.661,2.965,1.098,4.558,1.211c1.649,0.106,3.297-0.114,4.891-0.66l3.515-1.211
		c0.508-0.176,0.867-0.558,1.332-0.789c0.527-0.258,1.031-0.558,1.512-0.894c0.422-0.293,0.945-0.438,1.328-0.786
		c1.211-1.102,2.145-2.363,2.859-3.793c0.657-1.371,1.098-2.91,1.207-4.558c0.11-1.59-0.054-3.242-0.606-4.836l-14.774-42.734
		c-0.175-0.508-0.558-0.863-0.789-1.328c-0.262-0.527-0.562-1.035-0.898-1.516c-0.293-0.422-0.438-0.945-0.785-1.328
		c-1.098-1.211-2.364-2.141-3.794-2.855c-1.371-0.66-2.91-1.102-4.558-1.211c-1.59-0.11-3.238,0.054-4.832,0.66l-3.515,1.207
		c-1.594,0.551-3.024,1.375-4.231,2.473c-1.206,1.098-2.14,2.363-2.801,3.789c-0.714,1.375-1.098,2.91-1.206,4.562
		c-0.168,1.594,0.054,3.238,0.606,4.832l14.773,42.68C205.441,327.942,205.812,328.278,206.032,328.734z M203.68,278.218
		c0.606-0.222,1.211-0.164,1.813,0.11c0.55,0.274,0.934,0.766,1.156,1.371l14.446,41.75c0.218,0.656,0.164,1.262-0.11,1.808
		c-0.274,0.606-0.77,0.993-1.375,1.211l-0.714,0.218c-0.602,0.219-1.207,0.219-1.813-0.054c-0.55-0.328-0.988-0.77-1.152-1.375
		l-14.446-41.801c-0.218-0.602-0.168-1.206,0.11-1.758c0.274-0.606,0.714-0.988,1.316-1.207L203.68,278.218z" style="fill: rgb(255, 255, 255);"></path>
	<path class="st0" d="M244.547,326.226l8.242-2.855c0.82-0.332,1.098-0.879,0.82-1.762l-9.832-28.45l9.176-3.187
		c0.824-0.278,1.152-0.879,0.824-1.703l-2.805-8.238c-0.328-0.879-0.878-1.156-1.754-0.879l-9.176,3.184l-4.558-13.293l10.492-3.68
		c0.879-0.274,1.153-0.879,0.879-1.703L244,255.422c-0.274-0.878-0.879-1.152-1.703-0.824l-20.106,6.922
		c-0.824,0.274-1.153,0.879-0.824,1.703l21.422,62.126C243.121,326.226,243.668,326.5,244.547,326.226z" style="fill: rgb(255, 255, 255);"></path>
	<path class="st0" d="M276.406,253.442l-2.801-8.238c-0.328-0.875-0.878-1.153-1.758-0.824l-20.05,6.922
		c-0.875,0.274-1.153,0.879-0.875,1.703l21.477,62.129c0.273,0.875,0.878,1.152,1.702,0.875l8.238-2.856
		c0.879-0.273,1.153-0.878,0.879-1.758l-9.832-28.453l9.117-3.129c0.879-0.332,1.157-0.883,0.879-1.758l-2.855-8.242
		c-0.274-0.879-0.879-1.157-1.758-0.825l-9.117,3.133l-4.618-13.293l10.547-3.625C276.461,254.871,276.734,254.32,276.406,253.442z" style="fill: rgb(255, 255, 255);"></path>
	<path class="st0" d="M306.016,243.226l-2.859-8.238c-0.274-0.824-0.875-1.156-1.703-0.824l-20.102,6.918
		c-0.824,0.277-1.098,0.882-0.824,1.762l21.422,62.07c0.332,0.878,0.879,1.152,1.758,0.878l20.051-6.922
		c0.878-0.332,1.152-0.879,0.878-1.758l-2.855-8.238c-0.332-0.825-0.882-1.102-1.758-0.825l-10.547,3.622l-6.539-18.946l9.176-3.133
		c0.879-0.328,1.153-0.878,0.821-1.758l-2.801-8.242c-0.329-0.82-0.879-1.152-1.758-0.82l-9.172,3.129l-4.558-13.293l10.547-3.626
		C306.016,244.656,306.289,244.106,306.016,243.226z" style="fill: rgb(255, 255, 255);"></path>
	<path class="st0" d="M355.121,286.621l-2.855-8.238c-0.274-0.879-0.879-1.157-1.758-0.879l-10.492,3.679l-6.535-18.953l9.118-3.183
		c0.878-0.274,1.152-0.879,0.878-1.758l-2.855-8.187c-0.278-0.875-0.879-1.152-1.758-0.875l-9.122,3.188l-4.613-13.352l10.546-3.625
		c0.879-0.274,1.153-0.879,0.825-1.758l-2.801-8.184c-0.332-0.879-0.879-1.156-1.758-0.879l-20.05,6.922
		c-0.875,0.328-1.153,0.878-0.875,1.758l21.477,62.125c0.274,0.879,0.875,1.153,1.703,0.825l20.046-6.922
		C355.121,288.05,355.395,287.446,355.121,286.621z" style="fill: rgb(255, 255, 255);"></path>
	<polygon class="st0" points="347.356,365.766 347.356,336.363 347.414,325.332 347.356,325.355 347.356,325.183 295.609,346.16 
		247.25,365.606 247.644,365.606 247.25,365.766 	" style="fill: rgb(255, 255, 255);"></polygon>
</g>
</svg>
